Coordinates
version=1
nRows=11
nColumns=40
inDegrees=yes

Units are S.I. units (second, meters, Newtons, ...)
Angles are in degrees.

endheader
time	pelvis_tilt	pelvis_list	pelvis_rotation	pelvis_tx	pelvis_ty	pelvis_tz	hip_flexion_r	hip_adduction_r	hip_rotation_r	knee_angle_r	knee_angle_r_beta	ankle_angle_r	subtalar_angle_r	mtp_angle_r	hip_flexion_l	hip_adduction_l	hip_rotation_l	knee_angle_l	knee_angle_l_beta	ankle_angle_l	subtalar_angle_l	mtp_angle_l	lumbar_extension	lumbar_bending	lumbar_rotation	arm_flex_r	arm_add_r	arm_rot_r	elbow_flex_r	pro_sup_r	wrist_flex_r	wrist_dev_r	arm_flex_l	arm_add_l	arm_rot_l	elbow_flex_l	pro_sup_l	wrist_flex_l	wrist_dev_l
     20.19500000	     -2.82591524	     -2.81567843	     -5.99780306	      1.13102120	      0.92078454	      0.41309618	     28.86713608	     -2.82231952	    -12.45480293	     14.92618097	     14.92618097	      1.51786889	      0.75506170	      8.78493969	     -5.58787211	     -1.86683445	    -14.43668447	      9.44131447	      9.44131447	     18.64969604	     -3.35442344	     -5.29585833	     -9.98548214	      6.05409093	      1.37209248	    -20.37996572	    -12.14289693	    -13.18520326	     20.89876273	     47.63244822	      0.00000000	      0.00000000	     30.00899966	    -19.64746538	     -6.22788481	     84.44019252	     47.19036604	      0.00000000	      0.00000000
     20.20621429	     -2.80853718	     -2.74725822	     -5.99223268	      1.13267036	      0.91852071	      0.41535133	     28.68550045	     -2.66892291	    -13.07591743	     14.73247078	     14.73247078	      2.16424756	      1.70373628	      9.99176101	     -6.35096669	     -1.91956643	    -14.76091079	      9.55707108	      9.55707108	     19.59472271	     -2.59608961	     -4.67789754	     -9.86942620	      5.94245488	      0.80857985	    -21.93943422	    -12.07483351	    -13.93865481	     22.86213259	     47.55394701	      0.00000000	      0.00000000	     29.19022268	    -20.43583073	     -7.16014185	     88.13070732	     47.37396383	      0.00000000	      0.00000000
     20.21742857	     -2.82560861	     -2.78475917	     -5.96201388	      1.13430277	      0.91636120	      0.41787916	     28.41878978	     -2.35648322	    -13.32797798	     14.68476450	     14.68476450	      2.10525183	      1.79637869	      9.67152398	     -7.02651553	     -2.10327784	    -14.77134076	      9.74629517	      9.74629517	     20.20911072	     -2.47067563	     -4.49768433	     -9.63130097	      5.91098976	      1.04536242	    -23.04477581	    -11.77319583	    -13.98534484	     22.68054621	     47.54051561	      0.00000000	      0.00000000	     29.49161990	    -20.32815791	     -7.37751174	     89.63505168	     47.43718045	      0.00000000	      0.00000000
     20.22864286	     -2.85231425	     -2.89884413	     -5.88167933	      1.13596920	      0.91433975	      0.42048164	     28.24863080	     -2.05509777	    -13.53527607	     15.17339070	     15.17339070	      2.01865010	      1.56438468	      9.28008066	     -7.64964482	     -2.39690321	    -14.69236955	     10.01232397	     10.01232397	     20.73376844	     -2.52928427	     -4.48508315	     -9.36390637	      6.02043715	      1.03911018	    -23.81110504	    -11.52058818	    -14.00783920	     22.48877714	     47.53813166	      0.00000000	      0.00000000	     29.67190575	    -20.51375435	     -7.56276478	     90.38633101	     47.47051545	      0.00000000	      0.00000000
     20.23985714	     -2.83134776	     -2.99035519	     -5.78587214	      1.13778369	      0.91239119	      0.42336564	     27.96662357	     -1.74788260	    -13.37265842	     15.70237504	     15.70237504	      0.41572137	      0.48614931	      4.42491378	     -7.98848790	     -2.87111077	    -15.15988888	     11.08784524	     11.08784524	     22.23800783	     -1.52492560	     -2.76212396	     -9.25564781	      5.99170455	      0.46696282	    -24.15800688	    -11.43146747	    -14.21955293	     23.05905151	     47.48062138	      0.00000000	      0.00000000	     28.55009843	    -21.08586459	     -8.48692358	     93.85974701	     47.66276292	      0.00000000	      0.00000000
     20.25107143	     -2.88010966	     -3.10529210	     -5.66386129	      1.13947503	      0.91067484	      0.42616274	     28.04090591	     -1.57785018	    -13.32550763	     17.05764652	     17.05764652	      0.28076589	     -0.27451868	      3.42342386	     -8.29673660	     -3.28267115	    -14.96947682	     11.90241681	     11.90241681	     22.68923132	     -1.81022708	     -2.74173602	     -8.99128183	      6.06506028	      0.74990394	    -24.55463066	    -11.10597955	    -14.12649367	     22.69066856	     47.47611461	      0.00000000	      0.00000000	     28.62270457	    -20.75365820	     -8.59457463	     94.63425734	     47.69774147	      0.00000000	      0.00000000
     20.26228571	     -2.87869918	     -3.30516201	     -5.49858247	      1.14128850	      0.90928452	      0.42918718	     27.81725552	     -1.22858868	    -12.96336853	     17.96737368	     17.96737368	     -1.22727477	     -2.00819114	     -1.17171394	     -8.49121994	     -3.92463296	    -15.10202477	     13.14485429	     13.14485429	     23.60349813	     -1.43053550	     -1.88536880	     -8.82663957	      6.18730486	      0.35587452	    -24.12925681	    -10.98523697	    -13.85761920	     21.84385313	     47.45244461	      0.00000000	      0.00000000	     27.67379447	    -20.96276821	     -9.34636039	     96.49101135	     47.85946587	      0.00000000	      0.00000000
     20.27350000	     -2.85443864	     -3.49799244	     -5.33970242	      1.14299031	      0.90831416	      0.43215360	     27.83119038	     -1.04796392	    -12.82956143	     19.56039527	     19.56039527	     -1.03614963	     -2.84386683	     -1.82823645	     -8.62439844	     -4.51228962	    -14.81598146	     14.43251353	     14.43251353	     23.79721934	     -1.96090177	     -2.09853516	     -8.70034774	      6.33561118	      0.60640576	    -24.04033882	    -10.67921462	    -13.76836623	     21.66643618	     47.44705063	      0.00000000	      0.00000000	     27.44529135	    -20.62264085	     -9.37701116	     97.05752918	     47.88256431	      0.00000000	      0.00000000
     20.28471429	     -2.71460984	     -3.76173326	     -5.17049582	      1.14474764	      0.90793067	      0.43519152	     27.63330306	     -0.79781961	    -12.69574505	     21.03404372	     21.03404372	     -0.69840956	     -3.67983666	     -2.39157245	     -8.77681632	     -5.21043375	    -14.53161924	     15.92269653	     15.92269653	     23.82924140	     -2.49992613	     -2.38561196	     -8.73949137	      6.57068867	      0.83898601	    -23.73265383	    -10.50987517	    -13.69697761	     21.54065489	     47.44610818	      0.00000000	      0.00000000	     26.92203607	    -20.31857674	     -9.41104065	     97.50119471	     47.89810947	      0.00000000	      0.00000000
     20.29592857	     -2.82878712	     -3.97235519	     -4.98728341	      1.14620955	      0.90753268	      0.43838883	     27.69033463	     -0.51915822	    -12.32559151	     22.39174056	     22.39174056	     -0.31406483	     -4.82530658	     -2.91282993	     -8.24826089	     -6.01620381	    -14.27017544	     18.11358214	     18.11358214	     23.66632572	     -3.16596861	     -3.10416392	     -8.48895156	      6.68685612	      0.88028935	    -22.95746533	    -10.19485637	    -13.55394750	     21.27376645	     47.44788182	      0.00000000	      0.00000000	     26.03752642	    -19.92639692	     -9.61115762	     98.28959204	     47.93591051	      0.00000000	      0.00000000
     20.30714286	     -2.75892066	     -4.25092250	     -4.80727349	      1.14772846	      0.90785563	      0.44162972	     27.39806748	     -0.18341032	    -12.12137310	     23.50017986	     23.50017986	      0.30488784	     -5.61396152	     -3.22409053	     -7.81739185	     -6.90018536	    -13.95927332	     20.46416249	     20.46416249	     23.13012636	     -3.95165936	     -4.06596407	     -8.47494999	      6.89003621	      0.89020270	    -21.96262863	    -10.05196636	    -13.40571286	     21.00830201	     47.45332050	      0.00000000	      0.00000000	     24.99449327	    -19.56290761	     -9.88326959	     98.77063960	     47.97090457	      0.00000000	      0.00000000
